# xmcd
#
# Track frame offsets:
#  150
#  11626
#  27919
#  43628
#  58602
#  74892
#  87393
#  105614
#  118611
#  133540
#  145612
#  164775
#  181447
#  191535
#
# Disc length: 2723 seconds
#
# Revision: 0
# Processed by: cddbd v1.5.1PL2 Copyright (c) Steve Scherf et al.
# Submitted via: AltoMP3_Maker 3.0
#
DISCID=cb0aa10e
DTITLE=Don Allen - Ashes Of Love
DYEAR=1900
DGENRE=
TTITLE0=Ashes Of Love
TTITLE1=An Old Dream
TTITLE2=Iron Curtain
TTITLE3=Dim Lights, Thick Smoke
TTITLE4=It Wasn't GOD Who Made Honky Tonk Angels
TTITLE5=Very Truly Yours
TTITLE6='Til Each Tear Becomes A Rose
TTITLE7=That's How Much I Love You
TTITLE8=I Still Write Your Name In The Sand
TTITLE9=You Win Again
TTITLE10=Teardrops Falling In The Snow
TTITLE11=I Remember Loving You
TTITLE12=Just Out Of Reach
TTITLE13=Where Could I Go
EXTD=
EXTT0=
EXTT1=
EXTT2=
EXTT3=
EXTT4=
EXTT5=
EXTT6=
EXTT7=
EXTT8=
EXTT9=
EXTT10=
EXTT11=
EXTT12=
EXTT13=
PLAYORDER=
